<svg width="18" height="18" viewBox="0 0 18 18" fill="none" xmlns="http://www.w3.org/2000/svg">
<path d="M1.0885 8.16357H16.3273" stroke="#6D737A" stroke-width="1.08848" stroke-linecap="round" stroke-linejoin="round"/>
<path d="M15.2388 12.5176V14.1503C15.2388 14.2946 15.1814 14.4331 15.0794 14.5351C14.9773 14.6372 14.8389 14.6945 14.6945 14.6945H13.0618C12.9175 14.6945 12.779 14.6372 12.677 14.5351C12.5749 14.4331 12.5176 14.2946 12.5176 14.1503V12.5176" stroke="#6D737A" stroke-width="1.08848" stroke-linecap="round" stroke-linejoin="round"/>
<path d="M4.89821 12.5176V14.1503C4.89821 14.2946 4.84087 14.4331 4.7388 14.5351C4.63674 14.6372 4.49831 14.6945 4.35397 14.6945H2.72124C2.5769 14.6945 2.43847 14.6372 2.33641 14.5351C2.23434 14.4331 2.177 14.2946 2.177 14.1503V12.5176" stroke="#6D737A" stroke-width="1.08848" stroke-linecap="round" stroke-linejoin="round"/>
<path d="M4.35388 10.3406H5.44236" stroke="#6D737A" stroke-width="1.08848" stroke-linecap="round" stroke-linejoin="round"/>
<path d="M11.9733 10.3406H13.0617" stroke="#6D737A" stroke-width="1.08848" stroke-linecap="round" stroke-linejoin="round"/>
<path d="M15.2388 8.16367L13.2047 3.59205C13.1625 3.49533 13.0931 3.41297 13.0049 3.355C12.9167 3.29702 12.8136 3.26593 12.7081 3.2655H4.70772C4.6022 3.26593 4.49907 3.29702 4.4109 3.355C4.32273 3.41297 4.25331 3.49533 4.2111 3.59205L2.177 8.16367V12.5176H15.2388V8.16367Z" stroke="#6D737A" stroke-width="1.08848" stroke-linecap="round" stroke-linejoin="round"/>
</svg>
