<svg width="18" height="18" viewBox="0 0 18 18" fill="none" xmlns="http://www.w3.org/2000/svg">
<path d="M1.0885 8.16362H16.3273" stroke="#6D737A" stroke-width="1.08848" stroke-linecap="round" stroke-linejoin="round"/>
<path d="M15.2388 12.5175V14.1503C15.2388 14.2946 15.1814 14.433 15.0794 14.5351C14.9773 14.6372 14.8389 14.6945 14.6945 14.6945H13.0618C12.9175 14.6945 12.779 14.6372 12.677 14.5351C12.5749 14.433 12.5176 14.2946 12.5176 14.1503V12.5175" stroke="#6D737A" stroke-width="1.08848" stroke-linecap="round" stroke-linejoin="round"/>
<path d="M4.89815 12.5175V14.1503C4.89815 14.2946 4.84081 14.433 4.73874 14.5351C4.63668 14.6372 4.49825 14.6945 4.35391 14.6945H2.72118C2.57684 14.6945 2.43841 14.6372 2.33635 14.5351C2.23428 14.433 2.17694 14.2946 2.17694 14.1503V12.5175" stroke="#6D737A" stroke-width="1.08848" stroke-linecap="round" stroke-linejoin="round"/>
<path d="M4.35394 10.3406H5.44243" stroke="#6D737A" stroke-width="1.08848" stroke-linecap="round" stroke-linejoin="round"/>
<path d="M11.9733 10.3406H13.0618" stroke="#6D737A" stroke-width="1.08848" stroke-linecap="round" stroke-linejoin="round"/>
<path d="M15.2387 8.16361L13.2046 3.59199C13.1624 3.49527 13.093 3.41291 13.0048 3.35493C12.9167 3.29696 12.8135 3.26587 12.708 3.26544H4.70766C4.60214 3.26587 4.49901 3.29696 4.41084 3.35493C4.32267 3.41291 4.25325 3.49527 4.21104 3.59199L2.17694 8.16361V12.5175H15.2387V8.16361Z" stroke="#6D737A" stroke-width="1.08848" stroke-linecap="round" stroke-linejoin="round"/>
</svg>
