<svg width="16" height="16" viewBox="0 0 16 16" fill="none" xmlns="http://www.w3.org/2000/svg">
<path d="M7.81469 13.192C7.81469 13.192 2.14551 10.0173 2.14551 6.16224C2.14551 5.48074 2.38163 4.82029 2.81369 4.29326C3.24575 3.76623 3.84707 3.40517 4.51534 3.27152C5.1836 3.13786 5.87753 3.23987 6.47907 3.56018C7.0806 3.8805 7.55257 4.39933 7.81469 5.02841V5.02841C8.0768 4.39933 8.54878 3.8805 9.15031 3.56018C9.75184 3.23987 10.4458 3.13786 11.114 3.27152C11.7823 3.40517 12.3836 3.76623 12.8157 4.29326C13.2477 4.82029 13.4839 5.48074 13.4839 6.16224C13.4839 10.0173 7.81469 13.192 7.81469 13.192Z" stroke="#4A60A1" stroke-width="0.936687" stroke-linecap="round" stroke-linejoin="round"/>
</svg>
