<svg width="16" height="16" viewBox="0 0 16 16" fill="none" xmlns="http://www.w3.org/2000/svg">
<path d="M7.81463 13.192C7.81463 13.192 2.14545 10.0173 2.14545 6.16224C2.14545 5.48074 2.38156 4.82029 2.81363 4.29326C3.24569 3.76623 3.84701 3.40517 4.51528 3.27152C5.18354 3.13786 5.87747 3.23987 6.479 3.56018C7.08054 3.8805 7.55251 4.39933 7.81463 5.02841V5.02841C8.07674 4.39933 8.54872 3.8805 9.15025 3.56018C9.75178 3.23987 10.4457 3.13786 11.114 3.27152C11.7822 3.40517 12.3836 3.76623 12.8156 4.29326C13.2477 4.82029 13.4838 5.48074 13.4838 6.16224C13.4838 10.0173 7.81463 13.192 7.81463 13.192Z" stroke="#4A60A1" stroke-width="0.936687" stroke-linecap="round" stroke-linejoin="round"/>
</svg>
