<svg width="16" height="16" viewBox="0 0 16 16" fill="none" xmlns="http://www.w3.org/2000/svg">
<path d="M7.81466 13.192C7.81466 13.192 2.14548 10.0173 2.14548 6.16224C2.14548 5.48074 2.3816 4.82029 2.81366 4.29326C3.24572 3.76623 3.84704 3.40517 4.51531 3.27152C5.18357 3.13786 5.8775 3.23987 6.47903 3.56018C7.08057 3.8805 7.55254 4.39933 7.81466 5.02841V5.02841C8.07677 4.39933 8.54875 3.8805 9.15028 3.56018C9.75181 3.23987 10.4457 3.13786 11.114 3.27152C11.7823 3.40517 12.3836 3.76623 12.8157 4.29326C13.2477 4.82029 13.4838 5.48074 13.4838 6.16224C13.4838 10.0173 7.81466 13.192 7.81466 13.192Z" stroke="#4A60A1" stroke-width="0.936687" stroke-linecap="round" stroke-linejoin="round"/>
</svg>
