<svg width="44" height="45" viewBox="0 0 44 45" fill="none" xmlns="http://www.w3.org/2000/svg">
<path d="M37.125 38.1163V20.8429C37.1219 20.6526 37.0808 20.4649 37.0041 20.2907C36.9273 20.1165 36.8165 19.9595 36.6781 19.8288L22.9281 7.33352C22.6746 7.10163 22.3435 6.97302 22 6.97302C21.6565 6.97302 21.3254 7.10163 21.0719 7.33352L7.32187 19.8288C7.18351 19.9595 7.07269 20.1165 6.99595 20.2907C6.9192 20.4649 6.87808 20.6526 6.875 20.8429V38.1163" stroke="#4A60A1" stroke-width="2.75" stroke-linecap="round" stroke-linejoin="round"/>
<path d="M2.75 38.1156H41.25" stroke="#4A60A1" stroke-width="2.75" stroke-linecap="round" stroke-linejoin="round"/>
<path d="M26.125 38.1156V28.4906C26.125 28.1259 25.9801 27.7762 25.7223 27.5183C25.4644 27.2605 25.1147 27.1156 24.75 27.1156H19.25C18.8853 27.1156 18.5356 27.2605 18.2777 27.5183C18.0199 27.7762 17.875 28.1259 17.875 28.4906V38.1156" stroke="#4A60A1" stroke-width="2.75" stroke-linecap="round" stroke-linejoin="round"/>
</svg>
