<svg width="45" height="44" viewBox="0 0 45 44" fill="none" xmlns="http://www.w3.org/2000/svg">
<path d="M37.625 37.1257V19.8523C37.6219 19.662 37.5808 19.4743 37.5041 19.3001C37.4273 19.1259 37.3165 18.9689 37.1781 18.8382L23.4281 6.34292C23.1746 6.11103 22.8435 5.98242 22.5 5.98242C22.1565 5.98242 21.8254 6.11103 21.5719 6.34292L7.82187 18.8382C7.68351 18.9689 7.57269 19.1259 7.49595 19.3001C7.4192 19.4743 7.37808 19.662 7.375 19.8523V37.1257" stroke="#4A60A1" stroke-width="2.75" stroke-linecap="round" stroke-linejoin="round"/>
<path d="M3.25 37.125H41.75" stroke="#4A60A1" stroke-width="2.75" stroke-linecap="round" stroke-linejoin="round"/>
<path d="M26.625 37.125V27.5C26.625 27.1353 26.4801 26.7856 26.2223 26.5277C25.9644 26.2699 25.6147 26.125 25.25 26.125H19.75C19.3853 26.125 19.0356 26.2699 18.7777 26.5277C18.5199 26.7856 18.375 27.1353 18.375 27.5V37.125" stroke="#4A60A1" stroke-width="2.75" stroke-linecap="round" stroke-linejoin="round"/>
</svg>
