<svg width="78" height="78" viewBox="0 0 78 78" fill="none" xmlns="http://www.w3.org/2000/svg">
<path d="M68.8087 38.2565H68.7869C68.4912 38.2565 68.2064 38.1441 67.9906 37.9445L55.7391 26.5855C55.2639 26.1448 55.2367 25.4028 55.6757 24.9294C56.1164 24.4541 56.8584 24.4269 57.3318 24.8659L69.4581 36.107C69.7737 36.3174 69.9805 36.6766 69.9805 37.0829C69.9805 37.7323 69.4563 38.2565 68.8087 38.2565ZM45.2563 16.4437C44.9715 16.4437 44.6849 16.3403 44.46 16.1317C40.9536 12.8829 38.4903 10.5974 38.4903 10.5974C38.1728 10.3035 38.044 9.85908 38.1529 9.44005C38.2617 9.02103 38.5937 8.69815 39.0145 8.59657L39.234 8.54396C39.858 8.39522 40.4856 8.77615 40.6434 9.39652C41.5613 10.2473 43.5403 12.083 46.0544 14.4121C46.5297 14.8529 46.5569 15.5948 46.1179 16.0682C45.8857 16.3168 45.5719 16.4437 45.2563 16.4437Z" fill="#4A60A1"/>
<path d="M62.9297 69.4898C62.3238 69.4898 61.8105 69.0236 61.7615 68.4105C61.7416 68.1565 61.8032 67.9153 61.9248 67.7139V37.0762C61.9248 36.4287 62.449 35.9044 63.0966 35.9044C63.7442 35.9044 64.2684 36.4287 64.2684 37.0762V68.3053C64.2684 68.9166 63.7986 69.4245 63.1891 69.4734L63.0222 69.4861C62.9914 69.488 62.9605 69.4898 62.9297 69.4898Z" fill="#4A60A1"/>
<path d="M57.6602 25.4302C57.0144 25.4302 56.4884 24.9078 56.4884 24.2602L56.4666 13.9261C55.9714 13.781 55.6159 13.3203 55.6249 12.7797C55.6376 12.1321 56.1764 11.6115 56.8185 11.6297L57.6584 11.6442C58.2969 11.6551 58.8084 12.1757 58.8084 12.8142L58.832 24.2548C58.8338 24.9024 58.3096 25.4284 57.662 25.4302C57.662 25.4302 57.662 25.4302 57.6602 25.4302Z" fill="#4A60A1"/>
<path d="M56.1821 26.1858C56.1821 26.9714 56.8183 27.6076 57.6039 27.6076C58.3891 27.6076 59.0275 26.9719 59.0275 26.1858V12.67C59.0275 11.8843 58.3914 11.2482 57.6057 11.2482H49.0547C48.2691 11.2482 47.6329 11.8843 47.6329 12.67V18.2116C47.6329 18.9973 48.2691 19.6334 49.0547 19.6334C49.8404 19.6334 50.4766 18.9973 50.4766 18.2116V14.0918H56.1821V26.1858Z" fill="#1E2640" stroke="#1E2640" stroke-width="0.5"/>
<path d="M8.14152 38.0439C8.42128 38.35 8.80671 38.5061 9.19129 38.5061C9.53428 38.5061 9.87793 38.3828 10.1506 38.1344L10.1508 38.1341L39.1058 11.6678L67.6465 38.1275L67.6468 38.1278C68.2231 38.66 69.1211 38.6273 69.6559 38.0507L69.6559 38.0506C70.1888 37.4759 70.1555 36.5758 69.5791 36.0412L69.5791 36.0412L40.0791 8.69255C39.5372 8.18804 38.6984 8.18623 38.1528 8.68568L8.23174 36.0345L8.2315 36.0347C7.65331 36.5646 7.61073 37.4644 8.14152 38.0439ZM8.14152 38.0439C8.14158 38.044 8.14165 38.044 8.14171 38.0441L8.32603 37.8752L8.14147 38.0438C8.14148 38.0439 8.1415 38.0439 8.14152 38.0439Z" fill="#4A60A1" stroke="#4A60A1" stroke-width="0.5"/>
<path d="M14.8073 69.7365H63.1074L64.5275 68.3122V33.7571C64.5275 32.9714 63.8913 32.3353 63.1056 32.3353C62.32 32.3353 61.6838 32.9714 61.6838 33.7571V66.8911H16.2291V32.7032C16.2291 31.9175 15.593 31.2814 14.8073 31.2814C14.0217 31.2814 13.3855 31.9175 13.3855 32.7032V68.3147C13.3855 69.1004 14.0217 69.7365 14.8073 69.7365Z" fill="#4A60A1" stroke="#4A60A1" stroke-width="0.5"/>
<path d="M35.7375 43.5126C35.4124 42.715 35.2468 41.8614 35.25 41.0001C35.25 39.6651 35.6459 38.3601 36.3876 37.25C37.1293 36.14 38.1835 35.2748 39.4169 34.7639C40.6503 34.253 42.0075 34.1194 43.3169 34.3798C44.6262 34.6403 45.829 35.2831 46.773 36.2272C47.717 37.1712 48.3599 38.3739 48.6203 39.6833C48.8808 40.9926 48.7471 42.3498 48.2362 43.5832C47.7253 44.8166 46.8601 45.8708 45.7501 46.6125C44.6401 47.3542 43.335 47.7501 42 47.7501C41.1387 47.7534 40.2851 47.5877 39.4875 47.2626V47.2626L38.25 48.5001H36V50.7501H33.75V53.0001H30V49.2501L35.7375 43.5126Z" stroke="#1E2640" stroke-width="1.5" stroke-linecap="round" stroke-linejoin="round"/>
<path d="M43.875 40.2501C44.4963 40.2501 45 39.7464 45 39.1251C45 38.5038 44.4963 38.0001 43.875 38.0001C43.2537 38.0001 42.75 38.5038 42.75 39.1251C42.75 39.7464 43.2537 40.2501 43.875 40.2501Z" fill="#1E2640"/>
</svg>
