<svg width="16" height="16" viewBox="0 0 16 16" fill="none" xmlns="http://www.w3.org/2000/svg">
<path d="M4.16021 10.0173C5.16213 10.0173 5.97434 9.2051 5.97434 8.20318C5.97434 7.20125 5.16213 6.38904 4.16021 6.38904C3.15829 6.38904 2.34607 7.20125 2.34607 8.20318C2.34607 9.2051 3.15829 10.0173 4.16021 10.0173Z" stroke="#4A60A1" stroke-width="0.936687" stroke-linecap="round" stroke-linejoin="round"/>
<path d="M10.5097 14.0991C11.5116 14.0991 12.3238 13.2869 12.3238 12.285C12.3238 11.283 11.5116 10.4708 10.5097 10.4708C9.50777 10.4708 8.69556 11.283 8.69556 12.285C8.69556 13.2869 9.50777 14.0991 10.5097 14.0991Z" stroke="#4A60A1" stroke-width="0.936687" stroke-linecap="round" stroke-linejoin="round"/>
<path d="M10.5097 5.93553C11.5116 5.93553 12.3238 5.12331 12.3238 4.12139C12.3238 3.11947 11.5116 2.30725 10.5097 2.30725C9.50777 2.30725 8.69556 3.11947 8.69556 4.12139C8.69556 5.12331 9.50777 5.93553 10.5097 5.93553Z" stroke="#4A60A1" stroke-width="0.936687" stroke-linecap="round" stroke-linejoin="round"/>
<path d="M8.9847 5.10217L5.68524 7.22245" stroke="#4A60A1" stroke-width="0.936687" stroke-linecap="round" stroke-linejoin="round"/>
<path d="M5.68524 9.18396L8.9847 11.3042" stroke="#4A60A1" stroke-width="0.936687" stroke-linecap="round" stroke-linejoin="round"/>
</svg>
