<svg width="16" height="16" viewBox="0 0 16 16" fill="none" xmlns="http://www.w3.org/2000/svg">
<path d="M4.16018 10.0173C5.1621 10.0173 5.97431 9.2051 5.97431 8.20318C5.97431 7.20125 5.1621 6.38904 4.16018 6.38904C3.15826 6.38904 2.34604 7.20125 2.34604 8.20318C2.34604 9.2051 3.15826 10.0173 4.16018 10.0173Z" stroke="#4A60A1" stroke-width="0.936687" stroke-linecap="round" stroke-linejoin="round"/>
<path d="M10.5096 14.0991C11.5116 14.0991 12.3238 13.2869 12.3238 12.285C12.3238 11.283 11.5116 10.4708 10.5096 10.4708C9.50771 10.4708 8.6955 11.283 8.6955 12.285C8.6955 13.2869 9.50771 14.0991 10.5096 14.0991Z" stroke="#4A60A1" stroke-width="0.936687" stroke-linecap="round" stroke-linejoin="round"/>
<path d="M10.5096 5.93553C11.5116 5.93553 12.3238 5.12331 12.3238 4.12139C12.3238 3.11947 11.5116 2.30725 10.5096 2.30725C9.50771 2.30725 8.6955 3.11947 8.6955 4.12139C8.6955 5.12331 9.50771 5.93553 10.5096 5.93553Z" stroke="#4A60A1" stroke-width="0.936687" stroke-linecap="round" stroke-linejoin="round"/>
<path d="M8.98464 5.10217L5.68518 7.22245" stroke="#4A60A1" stroke-width="0.936687" stroke-linecap="round" stroke-linejoin="round"/>
<path d="M5.68518 9.18396L8.98464 11.3042" stroke="#4A60A1" stroke-width="0.936687" stroke-linecap="round" stroke-linejoin="round"/>
</svg>
