<svg width="20" height="21" viewBox="0 0 20 21" fill="none" xmlns="http://www.w3.org/2000/svg">
<g clip-path="url(#clip0_1_814)">
<path d="M6.66721 10.9906C6.66721 9.14973 8.15913 7.657 10 7.657C11.8409 7.657 13.3336 9.14973 13.3336 10.9906C13.3336 12.8315 11.8409 14.3242 10 14.3242C8.15913 14.3242 6.66721 12.8315 6.66721 10.9906ZM4.86511 10.9906C4.86511 13.8266 7.16397 16.1255 10 16.1255C12.836 16.1255 15.1349 13.8266 15.1349 10.9906C15.1349 8.15457 12.836 5.85571 10 5.85571C7.16397 5.85571 4.86511 8.15457 4.86511 10.9906ZM14.1381 5.65215C14.1381 6.31451 14.6753 6.85247 15.3385 6.85247C16.0008 6.85247 16.5388 6.31451 16.5388 5.65215C16.5388 4.98979 16.0016 4.45264 15.3385 4.45264C14.6753 4.45264 14.1381 4.98979 14.1381 5.65215ZM5.95961 19.1303C4.98465 19.0859 4.45477 18.9236 4.10259 18.7862C3.6357 18.6045 3.30291 18.388 2.95234 18.0383C2.60259 17.6885 2.3853 17.3557 2.20436 16.8888C2.06704 16.5366 1.90469 16.0068 1.86026 15.0318C1.81179 13.9777 1.8021 13.661 1.8021 10.9906C1.8021 8.32016 1.8126 8.00433 1.86026 6.94941C1.90469 5.97445 2.06785 5.44537 2.20436 5.09238C2.38611 4.6255 2.60259 4.2927 2.95234 3.94214C3.3021 3.59238 3.6349 3.37509 4.10259 3.19415C4.45477 3.05684 4.98465 2.89448 5.95961 2.85005C7.01373 2.80159 7.33037 2.79189 10 2.79189C12.6704 2.79189 12.9863 2.80239 14.0412 2.85005C15.0162 2.89448 15.5452 3.05764 15.8982 3.19415C16.3651 3.37509 16.6979 3.59238 17.0485 3.94214C17.3982 4.29189 17.6147 4.6255 17.7964 5.09238C17.9338 5.44456 18.0961 5.97445 18.1406 6.94941C18.189 8.00433 18.1987 8.32016 18.1987 10.9906C18.1987 13.6602 18.189 13.9769 18.1406 15.0318C18.0961 16.0068 17.933 16.5366 17.7964 16.8888C17.6147 17.3557 17.3982 17.6885 17.0485 18.0383C16.6987 18.388 16.3651 18.6045 15.8982 18.7862C15.546 18.9236 15.0162 19.0859 14.0412 19.1303C12.9871 19.1788 12.6704 19.1885 10 19.1885C7.33037 19.1885 7.01373 19.1788 5.95961 19.1303V19.1303ZM5.87722 1.05118C4.8126 1.09965 4.08562 1.26847 3.44992 1.51564C2.79241 1.77089 2.23506 2.11338 1.67851 2.66911C1.12278 3.22485 0.780291 3.7822 0.52504 4.44052C0.277868 5.07622 0.109047 5.8032 0.0605816 6.86782C0.0113086 7.93406 0 8.27493 0 10.9906C0 13.7063 0.0113086 14.0471 0.0605816 15.1134C0.109047 16.178 0.277868 16.905 0.52504 17.5407C0.780291 18.1982 1.12197 18.7564 1.67851 19.3121C2.23425 19.8678 2.7916 20.2095 3.44992 20.4656C4.08643 20.7127 4.8126 20.8816 5.87722 20.93C6.94427 20.9785 7.28433 20.9906 10 20.9906C12.7165 20.9906 13.0565 20.9793 14.1228 20.93C15.1874 20.8816 15.9144 20.7127 16.5501 20.4656C17.2076 20.2095 17.7649 19.8678 18.3215 19.3121C18.8772 18.7564 19.2189 18.1982 19.475 17.5407C19.7221 16.905 19.8918 16.178 19.9394 15.1134C19.9879 14.0463 19.9992 13.7063 19.9992 10.9906C19.9992 8.27493 19.9879 7.93406 19.9394 6.86782C19.891 5.8032 19.7221 5.07622 19.475 4.44052C19.2189 3.78301 18.8772 3.22566 18.3215 2.66911C17.7658 2.11338 17.2076 1.77089 16.5509 1.51564C15.9144 1.26847 15.1874 1.09884 14.1236 1.05118C13.0574 1.00272 12.7165 0.990601 10.0008 0.990601C7.28433 0.990601 6.94427 1.00191 5.87722 1.05118" fill="#4A60A1"/>
</g>
<defs>
<clipPath id="clip0_1_814">
<rect width="20" height="20" fill="white" transform="translate(0 0.990601)"/>
</clipPath>
</defs>
</svg>
