<svg width="20" height="21" viewBox="0 0 20 21" fill="none" xmlns="http://www.w3.org/2000/svg">
<g clip-path="url(#clip0_1_810)">
<path d="M0 10.9906C0 9.17726 0.44668 7.50394 1.34 5.9706C2.23334 4.43726 3.44668 3.22394 4.98 2.3306C6.51334 1.43726 8.18668 0.990601 10 0.990601C11.8133 0.990601 13.4867 1.43726 15.02 2.3306C16.5533 3.22394 17.7667 4.43726 18.66 5.9706C19.5533 7.50394 20 9.17726 20 10.9906C20 12.8039 19.5533 14.4773 18.66 16.0106C17.7667 17.5439 16.5533 18.7573 15.02 19.6506C13.4867 20.5439 11.8133 20.9906 10 20.9906C8.18668 20.9906 6.51334 20.5439 4.98 19.6506C3.44668 18.7573 2.23334 17.5439 1.34 16.0106C0.44668 14.4773 0 12.8039 0 10.9906ZM1.66 10.9906C1.66 13.0706 2.36 14.9039 3.76 16.4906C4.4 15.2373 5.41334 14.0439 6.8 12.9106C8.18668 11.7773 9.54 11.0639 10.86 10.7706C10.66 10.3039 10.4667 9.88394 10.28 9.5106C7.98668 10.2439 5.50668 10.6106 2.84 10.6106C2.32 10.6106 1.93334 10.6039 1.68 10.5906C1.68 10.6439 1.67668 10.7106 1.67 10.7906C1.66334 10.8706 1.66 10.9373 1.66 10.9906ZM1.92 8.9306C2.21334 8.95726 2.64668 8.9706 3.22 8.9706C5.44668 8.9706 7.56 8.6706 9.56 8.0706C8.54668 6.2706 7.43334 4.7706 6.22 3.5706C5.16668 4.10394 4.26334 4.84394 3.51 5.7906C2.75668 6.73726 2.22668 7.78394 1.92 8.9306ZM4.9 17.5706C6.40668 18.7439 8.10668 19.3306 10 19.3306C10.9867 19.3306 11.9667 19.1439 12.94 18.7706C12.6733 16.4906 12.1533 14.2839 11.38 12.1506C10.1533 12.4173 8.91668 13.0906 7.67 14.1706C6.42334 15.2506 5.5 16.3839 4.9 17.5706ZM7.96 2.9306C9.13334 4.14394 10.22 5.65726 11.22 7.4706C13.0333 6.7106 14.4 5.74394 15.32 4.5706C13.7733 3.2906 12 2.6506 10 2.6506C9.32 2.6506 8.64 2.74394 7.96 2.9306ZM11.94 8.8906C12.14 9.31726 12.3667 9.85726 12.62 10.5106C13.6067 10.4173 14.68 10.3706 15.84 10.3706C16.6667 10.3706 17.4867 10.3906 18.3 10.4306C18.1933 8.61726 17.54 7.00394 16.34 5.5906C15.4733 6.88394 14.0067 7.98394 11.94 8.8906ZM13.12 11.9106C13.8 13.8839 14.26 15.9106 14.5 17.9906C15.5533 17.3106 16.4133 16.4373 17.08 15.3706C17.7467 14.3039 18.1467 13.1506 18.28 11.9106C17.3067 11.8439 16.42 11.8106 15.62 11.8106C14.8867 11.8106 14.0533 11.8439 13.12 11.9106Z" fill="#4A60A1"/>
</g>
<defs>
<clipPath id="clip0_1_810">
<rect width="20" height="20" fill="white" transform="translate(0 0.990601)"/>
</clipPath>
</defs>
</svg>
