<svg width="20" height="21" viewBox="0 0 20 21" fill="none" xmlns="http://www.w3.org/2000/svg">
<path d="M8.07034 9.91237C8.07034 9.91237 9.96267 9.77371 9.96267 7.58341C9.96267 5.39296 8.41451 4.32397 6.45343 4.32397H0.000274658V16.5645H6.45343C6.45343 16.5645 10.3928 16.6874 10.3928 12.9517C10.3928 12.9517 10.5646 9.91237 8.07034 9.91237V9.91237ZM5.98893 6.4996H6.45343C6.45343 6.4996 7.3306 6.4996 7.3306 7.77317C7.3306 9.04659 6.81473 9.23122 6.22959 9.23122H2.84362V6.4996H5.98893V6.4996ZM6.27107 14.389H2.84362V11.1179H6.45343C6.45343 11.1179 7.76081 11.1009 7.76081 12.7989C7.76081 14.2306 6.78432 14.3782 6.27107 14.389V14.389ZM15.6467 7.43833C10.8776 7.43833 10.8819 12.1415 10.8819 12.1415C10.8819 12.1415 10.5547 16.8206 15.6467 16.8206C15.6467 16.8206 19.8901 17.0599 19.8901 13.5656H17.7078C17.7078 13.5656 17.7806 14.8815 15.7195 14.8815C15.7195 14.8815 13.5369 15.0259 13.5369 12.7519H19.9629C19.9629 12.7519 20.666 7.43833 15.6467 7.43833ZM13.5129 11.1179C13.5129 11.1179 13.7794 9.23118 15.6952 9.23118C17.6107 9.23118 17.5867 11.1179 17.5867 11.1179H13.5129ZM18.095 6.55243H12.9786V5.0451H18.095V6.55243Z" fill="#4A60A1"/>
</svg>
