<svg width="20" height="21" viewBox="0 0 20 21" fill="none" xmlns="http://www.w3.org/2000/svg">
<g clip-path="url(#clip0_1_812)">
<path d="M0 3.31358C0 2.64017 0.225232 2.08462 0.675676 1.64692C1.12612 1.2092 1.71172 0.990356 2.43243 0.990356C3.14029 0.990356 3.71299 1.20583 4.15058 1.63682C4.60102 2.08126 4.82625 2.66037 4.82625 3.37419C4.82625 4.02065 4.60747 4.55936 4.16988 4.99035C3.71944 5.43479 3.12741 5.65701 2.39382 5.65701H2.37452C1.66666 5.65701 1.09396 5.43479 0.656371 4.99035C0.218784 4.54591 0 3.98698 0 3.31358ZM0.250965 20.9903V7.4954H4.53668V20.9903H0.250965ZM6.9112 20.9903H11.1969V13.455C11.1969 12.9836 11.2484 12.62 11.3514 12.3641C11.5315 11.9062 11.805 11.5189 12.1718 11.2025C12.5386 10.886 12.9987 10.7277 13.5521 10.7277C14.9936 10.7277 15.7143 11.7445 15.7143 13.7782V20.9903H20V13.253C20 11.2597 19.5496 9.74792 18.6486 8.71762C17.7477 7.68731 16.5573 7.17216 15.0772 7.17216C13.417 7.17216 12.1236 7.91964 11.1969 9.41458V9.45499H11.1776L11.1969 9.41458V7.4954H6.9112C6.93693 7.92636 6.94981 9.26642 6.94981 11.5156C6.94981 13.7647 6.93693 16.923 6.9112 20.9903Z" fill="#4A60A1"/>
</g>
<defs>
<clipPath id="clip0_1_812">
<rect width="20" height="20" fill="white" transform="translate(0 0.990601)"/>
</clipPath>
</defs>
</svg>
